{"title":"The Cairos - Dream Of Reason (2014) [FLAC]","uid":10122446,"size":259713578,"categoryP":"audio","categoryS":"flac","magnet":"?xt=urn:btih:68dc15211f5914a7e69a164359857f2788b8a226&amp;dn=The+Cairos+-+Dream+Of+Reason+%282014%29+%5BFLAC%5D&amp;tr=udp%3A%2F%2Ftracker.openbittorrent.com%3A80&amp;tr=udp%3A%2F%2Fopen.demonii.com%3A1337&amp;tr=udp%3A%2F%2Ftracker.coppersurfer.tk%3A6969&amp;tr=udp%3A%2F%2Fexodus.desync.com%3A6969","seeders":2,"leechers":0,"uploader":"kabbs","files":-1,"time":1399698060,"description":"1.\tObsession\t\t\n2.\tTwo Weeks Of Eternity\t\t\n3.\tImaginations\t\t\n4.\tDesire\t\t\n5.\tRow Of Homes\t\t\n6.\tInsane\t\t\n7.\tFear Of Madness\t\t\n8.\tReasons\t\t\n9.\tGood Days\t\t\n10.\tPerspective\n\n------------------------------------------------------------\n\nExact Audio Copy V1.0 beta 3 from 29. August 2011\n\nEAC extraction logfile from 10. May 2014, 0:53\n\nThe Cairos / Dream Of Reason\n\nUsed drive  : HL-DT-STDVDRAM GH22LS50   Adapter: 0  ID: 0\n\nRead mode               : Secure\nUtilize accurate stream : Yes\nDefeat audio cache      : No\nMake use of C2 pointers : No\n\nRead offset correction                      : 667\nOverread into Lead-In and Lead-Out          : No\nFill up missing offset samples with silence : Yes\nDelete leading and trailing silent blocks   : No\nNull samples used in CRC calculations       : Yes\nUsed interface                              : Native Win32 interface for Win NT &amp; 2000\n\nUsed output format : Internal WAV Routines\nSample format      : 44.100 Hz; 16 Bit; Stereo\n\n\nTOC of the extracted CD\n\n     Track |   Start  |  Length  | Start sector | End sector \n    ---------------------------------------------------------\n        1  |  0:00.00 |  3:46.62 |         0    |    17011   \n        2  |  3:46.62 |  3:31.42 |     17012    |    32878   \n        3  |  7:18.29 |  3:09.12 |     32879    |    47065   \n        4  | 10:27.41 |  3:28.25 |     47066    |    62690   \n        5  | 13:55.66 |  3:35.17 |     62691    |    78832   \n        6  | 17:31.08 |  3:34.30 |     78833    |    94912   \n        7  | 21:05.38 |  4:26.24 |     94913    |   114886   \n        8  | 25:31.62 |  3:10.08 |    114887    |   129144   \n        9  | 28:41.70 |  4:42.13 |    129145    |   150307   \n       10  | 33:24.08 |  3:34.64 |    150308    |   166421   \n\n\nRange status and errors\n\nSelected range\n\n     Filename E:WAVCUEThe Cairos - Dream Of Reason.wav\n\n     Peak level 98.8 %\n     Extraction speed 2.5 X\n     Range quality 100.0 %\n     Copy CRC E269CFDB\n     Copy OK\n\nNo errors occurred\n\n \nAccurateRip summary\n \nTrack  1  not present in database\nTrack  2  not present in database\nTrack  3  not present in database\nTrack  4  not present in database\nTrack  5  not present in database\nTrack  6  not present in database\nTrack  7  not present in database\nTrack  8  not present in database\nTrack  9  not present in database\nTrack 10  not present in database\n \nNone of the tracks are present in the AccurateRip database\n\nEnd of status report\n\n==== Log checksum FC6DD3781DD8A061BB5F83CDD8F1C03300E865FA3F1D06DC7D6FC9E82374AA91 ====\n","torrent":{"xt":"urn:btih:68dc15211f5914a7e69a164359857f2788b8a226","amp;dn":"The+Cairos+-+Dream+Of+Reason+%282014%29+%5BFLAC%5D","amp;tr":["udp%3A%2F%2Ftracker.openbittorrent.com%3A80","udp%3A%2F%2Fopen.demonii.com%3A1337","udp%3A%2F%2Ftracker.coppersurfer.tk%3A6969","udp%3A%2F%2Fexodus.desync.com%3A6969"],"infoHash":"68dc15211f5914a7e69a164359857f2788b8a226","infoHashBuffer":{"type":"Buffer","data":[104,220,21,33,31,89,20,167,230,154,22,67,89,133,127,39,136,184,162,38]},"announce":[],"urlList":[]}}